<svg width="40" height="40" viewBox="0 0 40 40" fill="none" xmlns="http://www.w3.org/2000/svg">
<circle cx="20" cy="20" r="19.5" fill="white" stroke="#5355AC"/>
<g clip-path="url(#clip0_511_357)">
<path d="M20.834 17.4998H24.584L24.1673 19.1665H20.834V26.6665H19.1673V19.1665H15.834V17.4998H19.1673V15.9398C19.1673 14.454 19.3223 13.9148 19.6123 13.3715C19.8965 12.8347 20.3355 12.3957 20.8723 12.1115C21.4157 11.8215 21.9548 11.6665 23.4407 11.6665C23.8757 11.6665 24.2573 11.7082 24.584 11.7915V13.3332H23.4407C22.3373 13.3332 22.0015 13.3982 21.659 13.5815C21.4057 13.7165 21.2173 13.9048 21.0823 14.1582C20.899 14.5007 20.834 14.8365 20.834 15.9398V17.4998Z" fill="#5355AC"/>
</g>
<defs>
<clipPath id="clip0_511_357">
<rect width="20" height="20" fill="white" transform="translate(10 10)"/>
</clipPath>
</defs>
</svg>
