<svg width="32" height="32" viewBox="0 0 32 32" fill="none" xmlns="http://www.w3.org/2000/svg">
<circle cx="16" cy="16" r="16" fill="#3E7EEE"/>
<path d="M14.1 14.3344L12.1512 14.2C12.1176 13.8976 12.1008 13.6904 12.1008 13.5784C12.1008 12.5928 12.448 11.7528 13.1424 11.0584C13.848 10.3528 14.7944 10 15.9816 10C17.1464 10 18.076 10.3304 18.7704 10.9912C19.4648 11.652 19.812 12.464 19.812 13.4272C19.812 14.816 19.112 15.9416 17.712 16.804L15.5952 18.1144C14.9792 18.484 14.6096 18.8984 14.4864 19.3576H19.8792V21.1384H12C12.0224 20.164 12.2296 19.3128 12.6216 18.5848C13.0136 17.8568 13.6688 17.2072 14.5872 16.636L16.3848 15.5104C17.3144 14.928 17.7792 14.2448 17.7792 13.4608C17.7792 12.9792 17.6168 12.576 17.292 12.2512C16.9784 11.9264 16.5304 11.764 15.948 11.764C15.332 11.764 14.8616 11.9544 14.5368 12.3352C14.212 12.7048 14.0496 13.1864 14.0496 13.78L14.1 14.3344Z" fill="white"/>
</svg>
