<svg width="32" height="32" viewBox="0 0 32 32" fill="none" xmlns="http://www.w3.org/2000/svg">
<circle cx="16" cy="16" r="16" fill="#3E7EEE"/>
<path d="M15.2424 16.9472L14.3184 15.452L17.3256 12.764H12.3696V11H19.9296V12.68L16.9728 15.2672C17.8464 15.2896 18.608 15.5976 19.2576 16.1912C19.9072 16.7848 20.232 17.58 20.232 18.5768C20.232 19.5624 19.8624 20.4024 19.1232 21.0968C18.384 21.7912 17.3928 22.1384 16.1496 22.1384C14.94 22.1384 13.96 21.808 13.2096 21.1472C12.4704 20.4752 12.0672 19.6576 12 18.6944L13.9656 18.2912C13.988 18.9184 14.2008 19.428 14.604 19.82C15.0184 20.212 15.528 20.408 16.1328 20.408C16.7712 20.408 17.2752 20.2288 17.6448 19.8704C18.0144 19.512 18.1992 19.0752 18.1992 18.56C18.1992 17.9776 18.0032 17.5352 17.6112 17.2328C17.2304 16.9192 16.7824 16.7624 16.2672 16.7624C15.8304 16.7624 15.4888 16.824 15.2424 16.9472Z" fill="white"/>
</svg>
