<svg width="86" height="28" viewBox="0 0 86 28" fill="none" xmlns="http://www.w3.org/2000/svg">
<path d="M17.728 20.6629C16.9084 21.9056 16.0359 22.9235 15.1105 23.7167C14.1851 24.5099 13.3258 25.1841 12.5326 25.7394C11.8451 26.559 10.9858 27.1407 9.95467 27.4844C8.92351 27.8281 7.93201 28 6.98017 28C5.81681 28 4.79887 27.8149 3.92634 27.4448C3.05382 27.0746 2.32672 26.6119 1.74504 26.0567C1.16336 25.475 0.727101 24.8404 0.436261 24.153C0.14542 23.4391 0 22.7649 0 22.1303C0 21.4164 0.1322 20.8083 0.396601 20.3059C0.687441 19.8036 1.04438 19.4466 1.46742 19.2351C2.23418 17.2521 2.86874 15.2956 3.3711 13.3654C3.89991 11.4089 4.27007 9.45231 4.48159 7.49575L10.1926 6.70255C10.8536 9.26723 11.4089 11.356 11.8584 12.9688C12.3078 14.5552 12.6648 15.8905 12.9292 16.9745C13.1936 18.0321 13.3787 18.9575 13.4844 19.7507C13.5902 20.5439 13.6431 21.4297 13.6431 22.4079V22.6459C14.5949 21.9849 15.4013 21.3239 16.0623 20.6629H17.728ZM4.60057 21.0198C4.60057 21.4164 4.48159 21.7866 4.24363 22.1303C4.00567 22.4476 3.66194 22.6062 3.21246 22.6062C3.00094 22.6062 2.7762 22.5798 2.53824 22.5269C2.32672 22.4476 2.15486 22.3022 2.02266 22.0907C2.23418 23.0161 2.56468 23.7167 3.01416 24.1926C3.49008 24.6421 4.16431 24.8669 5.03683 24.8669C5.80359 24.8669 6.46459 24.6686 7.01983 24.272C7.57507 23.8489 7.85269 23.1218 7.85269 22.0907C7.85269 21.3768 7.81303 20.7422 7.73371 20.187C7.65439 19.6053 7.52219 18.9575 7.33711 18.2436C7.17847 17.5297 6.95373 16.6837 6.66289 15.7054C6.39849 14.7271 6.06799 13.4976 5.67139 12.017C5.40699 13.2861 5.07649 14.5156 4.67989 15.7054C4.30973 16.8687 3.91313 18.085 3.49008 19.3541C3.78092 19.4863 4.03211 19.6978 4.24363 19.9887C4.48159 20.2531 4.60057 20.5968 4.60057 21.0198Z" fill="white"/>
<path d="M32.0785 7.93201L25.3363 13.4051C25.5213 13.3787 25.6932 13.3654 25.8518 13.3654C26.0369 13.3654 26.222 13.3654 26.4071 13.3654C27.1474 13.3654 27.8613 13.458 28.5487 13.6431C29.2362 13.8017 29.8311 14.0925 30.3334 14.5156C30.8622 14.9122 31.2853 15.441 31.6026 16.102C31.9198 16.763 32.0785 17.5826 32.0785 18.5609C32.0785 18.7989 32.0653 19.1029 32.0388 19.4731C32.0388 19.8168 32.0256 20.1737 31.9992 20.5439C31.9727 20.8876 31.9463 21.2181 31.9198 21.5354C31.9198 21.8527 31.9198 22.1039 31.9198 22.289C31.9198 22.8442 32.052 23.2937 32.3164 23.6374C32.5808 23.9811 33.0964 24.153 33.8632 24.153C34.3391 24.153 34.7225 24.0869 35.0133 23.9547C35.3042 23.796 35.5421 23.5845 35.7272 23.3201C35.9387 23.0293 36.0974 22.6723 36.2031 22.2493C36.3353 21.7998 36.4675 21.271 36.5997 20.6629H38.2654C38.0539 22.2229 37.7366 23.492 37.3136 24.4703C36.917 25.4221 36.4543 26.1624 35.9255 26.6912C35.3967 27.22 34.815 27.577 34.1805 27.762C33.5459 27.9207 32.9113 28 32.2768 28C31.2721 28 30.4128 27.8546 29.6989 27.5637C28.985 27.2729 28.3901 26.8763 27.9142 26.3739C27.4647 25.8716 27.121 25.2899 26.883 24.6289C26.6715 23.9679 26.5657 23.2672 26.5657 22.5269C26.5657 22.2096 26.5789 21.7602 26.6054 21.1785C26.6318 20.5968 26.645 20.068 26.645 19.5921C26.645 18.6667 26.5128 17.9263 26.2484 17.3711C26.0105 16.8159 25.4685 16.5382 24.6224 16.5382C23.8027 16.5382 23.1682 16.7762 22.7187 17.2521C22.2957 17.7016 21.9784 18.2568 21.7669 18.9178V27.762H16.0558V0.793203L21.7669 0V13.9603L28.1521 7.93201H32.0785Z" fill="white"/>
<path d="M45.6255 24.6686C46.4187 24.6686 47.1193 24.5628 47.7275 24.3513C48.3356 24.1398 48.8776 23.8621 49.3535 23.5184C49.8294 23.1483 50.2657 22.7252 50.6623 22.2493C51.0589 21.7469 51.4423 21.2181 51.8124 20.6629H53.1609C52.7907 21.5883 52.3412 22.4873 51.8124 23.3598C51.3101 24.2323 50.6755 25.0123 49.9088 25.6997C49.1684 26.3872 48.2959 26.9424 47.2912 27.3654C46.2865 27.7885 45.1099 28 43.7615 28C42.6245 28 41.5802 27.8281 40.6283 27.4844C39.6765 27.1407 38.8436 26.6119 38.1297 25.898C37.4423 25.1577 36.9003 24.2191 36.5037 23.0822C36.1335 21.9188 35.9484 20.5307 35.9484 18.9178C35.9484 17.7809 36.0674 16.5647 36.3054 15.2691C36.5698 13.9471 37.0192 12.7309 37.6538 11.6204C38.2884 10.5099 39.1477 9.58451 40.2317 8.84419C41.3158 8.10387 42.6906 7.73371 44.3564 7.73371C45.6255 7.73371 46.6038 7.93201 47.2912 8.32861C47.9786 8.72521 48.481 9.18791 48.7983 9.71671C49.142 10.2455 49.3403 10.7611 49.3932 11.2635C49.4725 11.7658 49.5122 12.1228 49.5122 12.3343C49.5122 13.5241 49.2874 14.5685 48.8379 15.4674C48.4149 16.3664 47.8332 17.1331 47.0929 17.7677C46.379 18.3758 45.5462 18.8517 44.5943 19.1955C43.6689 19.5127 42.7171 19.6978 41.7388 19.7507C41.7652 21.5222 42.0561 22.7913 42.6113 23.5581C43.193 24.2984 44.1977 24.6686 45.6255 24.6686ZM46.4583 12.3739C46.4583 11.4485 46.2997 10.8008 45.9824 10.4306C45.6651 10.034 45.3214 9.83569 44.9513 9.83569C44.5018 9.83569 44.092 10.0604 43.7218 10.5099C43.3516 10.933 43.0211 11.5146 42.7303 12.255C42.4659 12.9688 42.2412 13.8149 42.0561 14.7932C41.8974 15.7715 41.7917 16.7894 41.7388 17.847C42.3998 17.7941 43.0211 17.6223 43.6028 17.3314C44.1845 17.0142 44.6869 16.6176 45.1099 16.1416C45.5329 15.6393 45.8634 15.0708 46.1014 14.4363C46.3394 13.8017 46.4583 13.1143 46.4583 12.3739Z" fill="white"/>
<path d="M60.8466 24.6686C61.6398 24.6686 62.3404 24.5628 62.9486 24.3513C63.5567 24.1398 64.0987 23.8621 64.5746 23.5184C65.0505 23.1483 65.4868 22.7252 65.8834 22.2493C66.28 21.7469 66.6634 21.2181 67.0335 20.6629H68.382C68.0118 21.5883 67.5623 22.4873 67.0335 23.3598C66.5312 24.2323 65.8966 25.0123 65.1299 25.6997C64.3895 26.3872 63.517 26.9424 62.5123 27.3654C61.5076 27.7885 60.331 28 58.9825 28C57.8456 28 56.8012 27.8281 55.8494 27.4844C54.8976 27.1407 54.0647 26.6119 53.3508 25.898C52.6634 25.1577 52.1214 24.2191 51.7248 23.0822C51.3546 21.9188 51.1695 20.5307 51.1695 18.9178C51.1695 17.7809 51.2885 16.5647 51.5265 15.2691C51.7909 13.9471 52.2403 12.7309 52.8749 11.6204C53.5095 10.5099 54.3688 9.58451 55.4528 8.84419C56.5368 8.10387 57.9117 7.73371 59.5775 7.73371C60.8466 7.73371 61.8249 7.93201 62.5123 8.32861C63.1997 8.72521 63.7021 9.18791 64.0194 9.71671C64.3631 10.2455 64.5614 10.7611 64.6143 11.2635C64.6936 11.7658 64.7333 12.1228 64.7333 12.3343C64.7333 13.5241 64.5085 14.5685 64.059 15.4674C63.636 16.3664 63.0543 17.1331 62.314 17.7677C61.6001 18.3758 60.7673 18.8517 59.8154 19.1955C58.89 19.5127 57.9382 19.6978 56.9599 19.7507C56.9863 21.5222 57.2772 22.7913 57.8324 23.5581C58.4141 24.2984 59.4188 24.6686 60.8466 24.6686ZM61.6794 12.3739C61.6794 11.4485 61.5208 10.8008 61.2035 10.4306C60.8862 10.034 60.5425 9.83569 60.1723 9.83569C59.7229 9.83569 59.313 10.0604 58.9429 10.5099C58.5727 10.933 58.2422 11.5146 57.9514 12.255C57.687 12.9688 57.4622 13.8149 57.2772 14.7932C57.1185 15.7715 57.0128 16.7894 56.9599 17.847C57.6209 17.7941 58.2422 17.6223 58.8239 17.3314C59.4056 17.0142 59.9079 16.6176 60.331 16.1416C60.754 15.6393 61.0845 15.0708 61.3225 14.4363C61.5605 13.8017 61.6794 13.1143 61.6794 12.3739Z" fill="white"/>
<path d="M77.1385 15.7054C77.1385 14.1454 76.9534 13.0349 76.5832 12.3739C76.2395 11.7129 75.7239 11.3824 75.0365 11.3824C74.3226 11.3824 73.7806 11.7394 73.4104 12.4533C73.0403 13.1671 72.8155 14.0264 72.7362 15.0312V27.762H67.0252V7.93201H72.7362V9.99433C73.3708 9.04249 74.0714 8.43437 74.8382 8.16997C75.605 7.90557 76.2924 7.77337 76.9005 7.77337C77.6673 7.77337 78.3944 7.89235 79.0818 8.13031C79.7693 8.36827 80.3642 8.76487 80.8665 9.32011C81.3953 9.87535 81.8052 10.6157 82.096 11.5411C82.3868 12.44 82.5322 13.5637 82.5322 14.9122C82.5322 15.3617 82.519 15.8508 82.4926 16.3796C82.4926 16.882 82.4794 17.3975 82.4529 17.9263C82.4265 18.4551 82.4 18.9707 82.3736 19.4731C82.3736 19.9754 82.3736 20.4117 82.3736 20.7819C82.3736 21.8924 82.5058 22.7384 82.7702 23.3201C83.0611 23.8754 83.6295 24.153 84.4756 24.153C85.1102 24.153 85.5332 24.0737 85.7447 23.915C85.7447 25.3428 85.4407 26.3872 84.8325 27.0482C84.2509 27.6827 83.3916 28 82.2546 28C81.2764 28 80.4567 27.8149 79.7957 27.4448C79.1347 27.0482 78.5927 26.5194 78.1696 25.8584C77.773 25.1974 77.4822 24.4306 77.2971 23.5581C77.1385 22.6856 77.0592 21.7602 77.0592 20.7819C77.0592 20.4382 77.0592 20.0415 77.0592 19.5921C77.0856 19.1161 77.0988 18.6534 77.0988 18.204C77.0988 17.728 77.0988 17.2786 77.0988 16.8555C77.1253 16.406 77.1385 16.0227 77.1385 15.7054Z" fill="white"/>
</svg>
