<svg width="92" height="31" viewBox="0 0 92 31" fill="none" xmlns="http://www.w3.org/2000/svg">
<path d="M18.9943 22.6388C18.1161 23.9703 17.1813 25.0609 16.1898 25.9108C15.1983 26.7606 14.2776 27.483 13.4278 28.0779C12.6912 28.9561 11.7705 29.5793 10.6657 29.9476C9.56091 30.3159 8.49858 30.5 7.47875 30.5C6.23229 30.5 5.14164 30.3017 4.2068 29.9051C3.27195 29.5085 2.49292 29.0127 1.86969 28.4178C1.24646 27.7946 0.779037 27.1147 0.467422 26.3782C0.155807 25.6133 0 24.8909 0 24.211C0 23.4462 0.141643 22.7946 0.424929 22.2564C0.736544 21.7181 1.11898 21.3357 1.57224 21.1091C2.39377 18.9844 3.07365 16.8881 3.6119 14.8201C4.17847 12.7238 4.57507 10.6275 4.8017 8.53116L10.9207 7.6813C11.6289 10.4292 12.2238 12.6671 12.7054 14.3952C13.187 16.0949 13.5694 17.5255 13.8527 18.687C14.136 19.8201 14.3343 20.8116 14.4476 21.6615C14.5609 22.5113 14.6176 23.4603 14.6176 24.5085V24.7635C15.6374 24.0552 16.5014 23.347 17.2096 22.6388H18.9943ZM4.92918 23.0212C4.92918 23.4462 4.8017 23.8428 4.54674 24.211C4.29178 24.551 3.92351 24.721 3.44193 24.721C3.2153 24.721 2.9745 24.6926 2.71955 24.636C2.49292 24.551 2.30878 24.3952 2.16714 24.1686C2.39377 25.1601 2.74788 25.9108 3.22946 26.4207C3.73938 26.9023 4.46176 27.1431 5.3966 27.1431C6.21813 27.1431 6.92634 26.9306 7.52125 26.5057C8.11615 26.0524 8.4136 25.2734 8.4136 24.1686C8.4136 23.4037 8.3711 22.7238 8.28612 22.1289C8.20113 21.5057 8.05949 20.8116 7.86119 20.0467C7.69122 19.2819 7.45042 18.3754 7.13881 17.3272C6.85552 16.279 6.50142 14.9618 6.07649 13.3754C5.7932 14.7351 5.43909 16.0524 5.01416 17.3272C4.61756 18.5737 4.19263 19.8768 3.73938 21.2365C4.05099 21.3782 4.32011 21.6048 4.54674 21.9164C4.8017 22.1997 4.92918 22.568 4.92918 23.0212Z" fill="#3E7EEE"/>
<path d="M34.3698 8.99858L27.146 14.8626C27.3443 14.8343 27.5284 14.8201 27.6984 14.8201C27.8967 14.8201 28.095 14.8201 28.2933 14.8201C29.0865 14.8201 29.8514 14.9193 30.5879 15.1176C31.3245 15.2875 31.9619 15.5992 32.5001 16.0524C33.0667 16.4773 33.5199 17.0439 33.8599 17.7521C34.1998 18.4603 34.3698 19.3385 34.3698 20.3867C34.3698 20.6416 34.3556 20.9674 34.3273 21.364C34.3273 21.7323 34.3131 22.1147 34.2848 22.5113C34.2565 22.8796 34.2281 23.2337 34.1998 23.5737C34.1998 23.9136 34.1998 24.1827 34.1998 24.381C34.1998 24.9759 34.3415 25.4575 34.6248 25.8258C34.908 26.194 35.4604 26.3782 36.282 26.3782C36.7919 26.3782 37.2027 26.3074 37.5143 26.1657C37.8259 25.9958 38.0808 25.7691 38.2791 25.4858C38.5058 25.1742 38.6757 24.7918 38.7891 24.3385C38.9307 23.8569 39.0723 23.2904 39.214 22.6388H40.9987C40.7721 24.3102 40.4321 25.67 39.9789 26.7181C39.5539 27.738 39.0582 28.5312 38.4916 29.0977C37.925 29.6643 37.3018 30.0467 36.6219 30.245C35.942 30.415 35.2621 30.5 34.5823 30.5C33.5058 30.5 32.5851 30.3442 31.8202 30.0326C31.0553 29.721 30.418 29.296 29.908 28.7578C29.4265 28.2195 29.0582 27.5963 28.8032 26.8881C28.5766 26.1799 28.4633 25.4292 28.4633 24.636C28.4633 24.296 28.4774 23.8144 28.5058 23.1912C28.5341 22.568 28.5483 22.0014 28.5483 21.4915C28.5483 20.5 28.4066 19.7068 28.1233 19.1119C27.8684 18.517 27.2876 18.2195 26.3811 18.2195C25.5029 18.2195 24.8231 18.4745 24.3415 18.9844C23.8882 19.466 23.5483 20.0609 23.3216 20.7691V30.245H17.2027V1.34986L23.3216 0.5V15.4575L30.163 8.99858H34.3698Z" fill="#3E7EEE"/>
<path d="M48.8844 26.9306C49.7343 26.9306 50.485 26.8173 51.1366 26.5907C51.7881 26.364 52.3689 26.0666 52.8788 25.6983C53.3887 25.3017 53.8561 24.8484 54.281 24.3385C54.706 23.8003 55.1167 23.2337 55.5133 22.6388H56.9581C56.5615 23.6303 56.0799 24.5935 55.5133 25.5283C54.9751 26.4632 54.2952 27.2989 53.4737 28.0354C52.6805 28.772 51.7456 29.3669 50.6691 29.8201C49.5927 30.2734 48.332 30.5 46.8873 30.5C45.6691 30.5 44.5502 30.3159 43.5303 29.9476C42.5105 29.5793 41.6182 29.0127 40.8533 28.2479C40.1167 27.4547 39.536 26.449 39.1111 25.2309C38.7145 23.9844 38.5162 22.4972 38.5162 20.7691C38.5162 19.551 38.6437 18.2479 38.8986 16.8598C39.1819 15.4433 39.6635 14.1402 40.3434 12.9504C41.0233 11.7606 41.9439 10.7691 43.1054 9.97592C44.2669 9.18272 45.74 8.78612 47.5247 8.78612C48.8844 8.78612 49.9326 8.99858 50.6691 9.42351C51.4057 9.84844 51.9439 10.3442 52.2839 10.9108C52.6521 11.4773 52.8646 12.0297 52.9213 12.568C53.0063 13.1062 53.0488 13.4887 53.0488 13.7153C53.0488 14.9901 52.808 16.1091 52.3264 17.0722C51.8731 18.0354 51.2499 18.8569 50.4567 19.5368C49.6918 20.1884 48.7995 20.6983 47.7796 21.0666C46.7881 21.4065 45.7683 21.6048 44.7201 21.6615C44.7485 23.5595 45.0601 24.9193 45.655 25.7408C46.2782 26.534 47.3547 26.9306 48.8844 26.9306ZM49.7768 13.7578C49.7768 12.7663 49.6068 12.0722 49.2669 11.6756C48.9269 11.2507 48.5587 11.0382 48.1621 11.0382C47.6805 11.0382 47.2414 11.279 46.8448 11.7606C46.4482 12.2139 46.0941 12.8371 45.7825 13.6303C45.4992 14.3952 45.2584 15.3017 45.0601 16.3499C44.8901 17.398 44.7768 18.4887 44.7201 19.6218C45.4284 19.5652 46.0941 19.381 46.7173 19.0694C47.3405 18.7295 47.8788 18.3045 48.332 17.7946C48.7853 17.2564 49.1394 16.6473 49.3944 15.9674C49.6493 15.2875 49.7768 14.551 49.7768 13.7578Z" fill="#3E7EEE"/>
<path d="M65.1928 26.9306C66.0426 26.9306 66.7933 26.8173 67.4449 26.5907C68.0964 26.364 68.6772 26.0666 69.1871 25.6983C69.697 25.3017 70.1644 24.8484 70.5894 24.3385C71.0143 23.8003 71.4251 23.2337 71.8217 22.6388H73.2664C72.8698 23.6303 72.3882 24.5935 71.8217 25.5283C71.2834 26.4632 70.6035 27.2989 69.782 28.0354C68.9888 28.772 68.0539 29.3669 66.9775 29.8201C65.901 30.2734 64.6404 30.5 63.1956 30.5C61.9775 30.5 60.8585 30.3159 59.8387 29.9476C58.8188 29.5793 57.9265 29.0127 57.1616 28.2479C56.4251 27.4547 55.8443 26.449 55.4194 25.2309C55.0228 23.9844 54.8245 22.4972 54.8245 20.7691C54.8245 19.551 54.952 18.2479 55.2069 16.8598C55.4902 15.4433 55.9718 14.1402 56.6517 12.9504C57.3316 11.7606 58.2523 10.7691 59.4137 9.97592C60.5752 9.18272 62.0483 8.78612 63.833 8.78612C65.1928 8.78612 66.2409 8.99858 66.9775 9.42351C67.714 9.84844 68.2523 10.3442 68.5922 10.9108C68.9605 11.4773 69.1729 12.0297 69.2296 12.568C69.3146 13.1062 69.3571 13.4887 69.3571 13.7153C69.3571 14.9901 69.1163 16.1091 68.6347 17.0722C68.1814 18.0354 67.5582 18.8569 66.765 19.5368C66.0001 20.1884 65.1078 20.6983 64.0879 21.0666C63.0964 21.4065 62.0766 21.6048 61.0285 21.6615C61.0568 23.5595 61.3684 24.9193 61.9633 25.7408C62.5865 26.534 63.663 26.9306 65.1928 26.9306ZM66.0851 13.7578C66.0851 12.7663 65.9151 12.0722 65.5752 11.6756C65.2353 11.2507 64.867 11.0382 64.4704 11.0382C63.9888 11.0382 63.5497 11.279 63.1531 11.7606C62.7565 12.2139 62.4024 12.8371 62.0908 13.6303C61.8075 14.3952 61.5667 15.3017 61.3684 16.3499C61.1984 17.398 61.0851 18.4887 61.0285 19.6218C61.7367 19.5652 62.4024 19.381 63.0256 19.0694C63.6488 18.7295 64.1871 18.3045 64.6404 17.7946C65.0936 17.2564 65.4477 16.6473 65.7027 15.9674C65.9576 15.2875 66.0851 14.551 66.0851 13.7578Z" fill="#3E7EEE"/>
<path d="M82.6484 17.3272C82.6484 15.6558 82.4501 14.466 82.0535 13.7578C81.6852 13.0496 81.1328 12.6955 80.3963 12.6955C79.6314 12.6955 79.0507 13.0779 78.654 13.8428C78.2574 14.6076 78.0167 15.5283 77.9317 16.6048V30.245H71.8127V8.99858H77.9317V11.2082C78.6116 10.1884 79.3623 9.53683 80.1838 9.25354C81.0053 8.97026 81.7419 8.82861 82.3934 8.82861C83.215 8.82861 83.994 8.95609 84.7305 9.21105C85.4671 9.46601 86.1045 9.89093 86.6427 10.4858C87.2093 11.0807 87.6484 11.8739 87.96 12.8654C88.2716 13.8286 88.4274 15.0326 88.4274 16.4773C88.4274 16.9589 88.4133 17.483 88.3849 18.0496C88.3849 18.5878 88.3708 19.1402 88.3424 19.7068C88.3141 20.2734 88.2858 20.8258 88.2574 21.364C88.2574 21.9023 88.2574 22.3697 88.2574 22.7663C88.2574 23.9561 88.3991 24.8626 88.6824 25.4858C88.994 26.0807 89.6031 26.3782 90.5096 26.3782C91.1895 26.3782 91.6427 26.2932 91.8693 26.1232C91.8693 27.653 91.5436 28.772 90.892 29.4802C90.2688 30.1601 89.3481 30.5 88.13 30.5C87.0818 30.5 86.2036 30.3017 85.4954 29.9051C84.7872 29.4802 84.2065 28.9136 83.7532 28.2054C83.3283 27.4972 83.0167 26.6756 82.8184 25.7408C82.6484 24.8059 82.5634 23.8144 82.5634 22.7663C82.5634 22.398 82.5634 21.9731 82.5634 21.4915C82.5917 20.9816 82.6059 20.4858 82.6059 20.0042C82.6059 19.4943 82.6059 19.0127 82.6059 18.5595C82.6342 18.0779 82.6484 17.6671 82.6484 17.3272Z" fill="#3E7EEE"/>
</svg>
