<svg width="124" height="20" viewBox="0 0 124 20" fill="none" xmlns="http://www.w3.org/2000/svg">
<g clip-path="url(#clip0_10_1697)">
<path d="M10.4932 0.495642C10.5557 0.532721 10.5557 0.532721 10.625 0.585974C10.662 0.613666 10.6991 0.641357 10.7372 0.669888C10.8663 0.778197 10.938 0.902977 11.0081 1.05442C11.0212 1.0815 11.0342 1.10858 11.0476 1.13648C11.2183 1.49644 11.3716 1.86429 11.5259 2.23148C11.5595 2.311 11.5931 2.39051 11.6267 2.47001C11.6982 2.63886 11.7695 2.80775 11.8408 2.97666C12.0151 3.38915 12.1909 3.80096 12.3666 4.21286C12.6726 4.93049 12.9776 5.64857 13.2812 6.36722C13.5679 6.39473 13.8546 6.42215 14.1413 6.44954C14.2483 6.45976 14.3553 6.47001 14.4623 6.48029C15.15 6.54632 15.8379 6.61057 16.526 6.67227C16.7552 6.69286 16.9844 6.71367 17.2136 6.73448C17.4393 6.75493 17.665 6.775 17.8908 6.79483C18.0332 6.80742 18.1755 6.82036 18.3179 6.8334C18.3843 6.83941 18.4507 6.84527 18.5172 6.85097C19.4204 6.92867 19.4204 6.92867 19.7656 7.26566C20.0097 7.58551 20.0289 7.88906 20 8.28129C19.9401 8.51557 19.8293 8.66832 19.6484 8.82816C19.6076 8.87036 19.5669 8.91269 19.5264 8.95511C19.415 9.06673 19.2977 9.1664 19.1748 9.26517C19.0072 9.39994 18.8482 9.54057 18.6914 9.68754C18.5063 9.86092 18.3156 10.0231 18.1177 10.1819C17.9695 10.3054 17.8296 10.437 17.6888 10.5688C17.5589 10.6898 17.4263 10.8046 17.2876 10.9156C17.1167 11.0526 16.9562 11.1976 16.7969 11.3477C16.6052 11.5282 16.4087 11.6978 16.203 11.8624C16.0518 11.988 15.9084 12.1214 15.7652 12.256C15.7353 12.284 15.7353 12.284 15.7048 12.3127C15.6854 12.3312 15.6661 12.3498 15.6461 12.3689C15.5859 12.4219 15.5859 12.4219 15.5174 12.467C15.4403 12.5155 15.4403 12.5155 15.3516 12.6172C15.3642 12.8982 15.4304 13.1683 15.4936 13.4417C15.5041 13.4878 15.5146 13.5339 15.5254 13.5814C15.554 13.7069 15.5827 13.8324 15.6116 13.9579C15.6419 14.09 15.672 14.2222 15.7021 14.3543C15.7592 14.6047 15.8166 14.855 15.8739 15.1053C15.9388 15.3884 16.0035 15.6715 16.0681 15.9546C16.169 16.3965 16.2701 16.8385 16.3713 17.2803C16.3859 17.3442 16.3859 17.3442 16.4008 17.4093C16.4101 17.4499 16.4194 17.4905 16.429 17.5324C16.438 17.5718 16.447 17.6112 16.4563 17.6518C16.4761 17.7375 16.4963 17.823 16.5168 17.9085C16.5274 17.9529 16.538 17.9973 16.549 18.0431C16.5586 18.083 16.5683 18.1228 16.5782 18.1639C16.6613 18.582 16.5932 18.9167 16.3599 19.2701C16.1235 19.4959 15.8654 19.6135 15.5395 19.6192C15.5052 19.6202 15.4708 19.6212 15.4353 19.6222C15.0932 19.5865 14.8256 19.422 14.5384 19.242C14.4191 19.1672 14.299 19.0936 14.1791 19.0198C14.1539 19.0043 14.1288 18.9888 14.1029 18.9728C13.8076 18.7907 13.509 18.6141 13.2104 18.4375C13.1101 18.3781 13.0097 18.3187 12.9094 18.2593C12.8851 18.2449 12.8609 18.2306 12.8359 18.2158C12.6655 18.1148 12.4955 18.0131 12.3257 17.9111C12.126 17.791 11.9258 17.6716 11.7253 17.5528C11.6999 17.5378 11.6745 17.5227 11.6483 17.5072C11.5151 17.4283 11.3819 17.3495 11.2486 17.2708C11.0146 17.1324 10.7813 16.9938 10.5522 16.8473C10.52 16.8268 10.4878 16.8063 10.4546 16.7852C10.3978 16.7488 10.3413 16.7118 10.2852 16.6742C10.1726 16.6022 10.1017 16.5609 9.96628 16.5704C9.83347 16.6042 9.74161 16.6521 9.62555 16.7246C9.58341 16.7506 9.54128 16.7766 9.49787 16.8034C9.46438 16.8244 9.46438 16.8244 9.43022 16.8458C9.33376 16.9064 9.23678 16.966 9.13982 17.0257C9.08843 17.0574 9.03705 17.0891 8.98571 17.1208C8.70411 17.2946 8.41957 17.4634 8.13476 17.6319C8.08226 17.663 8.02977 17.6941 7.97727 17.7252C7.79165 17.8352 7.60595 17.9451 7.42025 18.055C7.23521 18.1646 7.0502 18.2742 6.86523 18.3838C6.82667 18.4067 6.82667 18.4067 6.78733 18.43C6.50374 18.5981 6.22082 18.7672 5.93933 18.9388C5.90178 18.9617 5.90178 18.9617 5.86348 18.985C5.74519 19.0571 5.62701 19.1294 5.50899 19.202C5.08163 19.4635 4.73475 19.6722 4.21875 19.6094C3.90176 19.5059 3.67907 19.3539 3.51562 19.0625C3.49145 19.0214 3.46728 18.9804 3.44238 18.938C3.3252 18.5409 3.41536 18.1347 3.50898 17.7415C3.52089 17.6897 3.53276 17.6379 3.54458 17.586C3.5699 17.4754 3.59556 17.3649 3.6215 17.2545C3.6626 17.0796 3.7029 16.9045 3.74312 16.7293C3.80684 16.4523 3.87109 16.1754 3.93556 15.8985C4.051 15.4026 4.16559 14.9066 4.27991 14.4104C4.31998 14.2367 4.3603 14.0629 4.40082 13.8893C4.42603 13.781 4.45109 13.6728 4.47611 13.5645C4.49316 13.491 4.51041 13.4175 4.52766 13.344C4.5834 13.1022 4.63675 12.8656 4.64844 12.6172C4.57911 12.5211 4.5337 12.472 4.44336 12.4024C4.41113 12.3753 4.41113 12.3753 4.37826 12.3477C4.31292 12.2931 4.24651 12.2402 4.17969 12.1875C4.10967 12.1306 4.03968 12.0736 3.96972 12.0166C3.93478 11.9885 3.89983 11.9604 3.86383 11.9315C3.70561 11.7987 3.55634 11.6572 3.40602 11.5156C3.23742 11.3577 3.0623 11.2111 2.88193 11.0668C2.75686 10.9628 2.63819 10.8534 2.51953 10.7422C2.36735 10.5997 2.21354 10.4627 2.05078 10.3321C1.86477 10.1828 1.69084 10.0238 1.51694 9.86094C1.38705 9.73997 1.2544 9.62518 1.11572 9.5142C0.0371095 8.64782 0.0371096 8.64782 -0.0164814 8.17493C-0.0329101 7.85172 -0.00597514 7.57024 0.195311 7.30472C0.399006 7.08255 0.636491 6.94954 0.937889 6.91357C0.962371 6.91062 0.986852 6.90767 1.01208 6.90462C1.46424 6.8523 1.91817 6.81455 2.37149 6.77375C2.51237 6.76104 2.65324 6.74817 2.79411 6.73533C3.06029 6.71107 3.32649 6.68693 3.5927 6.66285C4.0698 6.61967 4.5469 6.57633 5.02398 6.53289C5.19105 6.51769 5.35812 6.50255 5.5252 6.48745C5.60407 6.48032 5.68293 6.47317 5.7618 6.466C5.85757 6.4573 5.95335 6.44864 6.04913 6.44003C6.13203 6.43247 6.2149 6.42466 6.29775 6.41652C6.36596 6.41009 6.43427 6.4046 6.50266 6.40049C6.6615 6.39007 6.6615 6.39007 6.78413 6.29717C6.79657 6.26638 6.809 6.23559 6.82182 6.20387C6.83679 6.16862 6.85177 6.13337 6.86719 6.09705C6.88226 6.05806 6.89732 6.01906 6.91284 5.97889C6.93827 5.91764 6.93827 5.91764 6.96422 5.85516C7.02027 5.71949 7.07456 5.58318 7.1289 5.44681C7.16787 5.35175 7.20698 5.25675 7.24621 5.1618C7.30757 5.01323 7.36881 4.86461 7.42945 4.71575C7.57219 4.36544 7.7185 4.01684 7.86789 3.66932C7.87819 3.64534 7.8885 3.62137 7.89911 3.59667C7.9504 3.47743 8.00175 3.35822 8.05315 3.23903C8.12928 3.06236 8.2051 2.88557 8.28086 2.70874C8.31696 2.62455 8.35313 2.54039 8.38937 2.45626C8.47626 2.25438 8.56248 2.05227 8.64684 1.84933C8.68828 1.74974 8.73004 1.6503 8.77183 1.55086C8.80108 1.48088 8.82988 1.4107 8.85866 1.34053C9.02291 0.950377 9.18724 0.657611 9.57794 0.465735C9.84238 0.378815 10.2404 0.374428 10.4932 0.495642Z" fill="#FFC106"/>
</g>
<g clip-path="url(#clip1_10_1697)">
<path d="M36.4932 0.495642C36.5557 0.532721 36.5557 0.532721 36.625 0.585974C36.662 0.613666 36.6991 0.641357 36.7372 0.669888C36.8663 0.778197 36.938 0.902977 37.0081 1.05442C37.0212 1.0815 37.0342 1.10858 37.0476 1.13648C37.2183 1.49644 37.3716 1.86429 37.5259 2.23148C37.5595 2.311 37.5931 2.39051 37.6267 2.47001C37.6982 2.63886 37.7695 2.80775 37.8408 2.97666C38.0151 3.38915 38.1909 3.80096 38.3666 4.21286C38.6726 4.93049 38.9776 5.64857 39.2812 6.36722C39.5679 6.39473 39.8546 6.42215 40.1413 6.44954C40.2483 6.45976 40.3553 6.47001 40.4623 6.48029C41.15 6.54632 41.8379 6.61057 42.526 6.67227C42.7552 6.69286 42.9844 6.71367 43.2136 6.73448C43.4393 6.75493 43.665 6.775 43.8908 6.79483C44.0332 6.80742 44.1755 6.82036 44.3179 6.8334C44.3843 6.83941 44.4507 6.84527 44.5172 6.85097C45.4204 6.92867 45.4204 6.92867 45.7656 7.26566C46.0097 7.58551 46.0289 7.88906 46 8.28129C45.9401 8.51557 45.8293 8.66832 45.6484 8.82816C45.6076 8.87036 45.5669 8.91269 45.5264 8.95511C45.415 9.06673 45.2977 9.1664 45.1748 9.26517C45.0072 9.39994 44.8482 9.54057 44.6914 9.68754C44.5063 9.86092 44.3156 10.0231 44.1177 10.1819C43.9695 10.3054 43.8296 10.437 43.6888 10.5688C43.5589 10.6898 43.4263 10.8046 43.2876 10.9156C43.1167 11.0526 42.9562 11.1976 42.7969 11.3477C42.6052 11.5282 42.4087 11.6978 42.203 11.8624C42.0518 11.988 41.9084 12.1214 41.7652 12.256C41.7353 12.284 41.7353 12.284 41.7048 12.3127C41.6854 12.3312 41.6661 12.3498 41.6461 12.3689C41.5859 12.4219 41.5859 12.4219 41.5174 12.467C41.4403 12.5155 41.4403 12.5155 41.3516 12.6172C41.3642 12.8982 41.4304 13.1683 41.4936 13.4417C41.5041 13.4878 41.5146 13.5339 41.5254 13.5814C41.554 13.7069 41.5827 13.8324 41.6116 13.9579C41.6419 14.09 41.672 14.2222 41.7021 14.3543C41.7592 14.6047 41.8166 14.855 41.8739 15.1053C41.9388 15.3884 42.0035 15.6715 42.0681 15.9546C42.169 16.3965 42.2701 16.8385 42.3713 17.2803C42.3859 17.3442 42.3859 17.3442 42.4008 17.4093C42.4101 17.4499 42.4194 17.4905 42.429 17.5324C42.438 17.5718 42.447 17.6112 42.4563 17.6518C42.4761 17.7375 42.4963 17.823 42.5168 17.9085C42.5274 17.9529 42.538 17.9973 42.549 18.0431C42.5586 18.083 42.5683 18.1228 42.5782 18.1639C42.6613 18.582 42.5932 18.9167 42.3599 19.2701C42.1235 19.4959 41.8654 19.6135 41.5395 19.6192C41.5052 19.6202 41.4708 19.6212 41.4353 19.6222C41.0932 19.5865 40.8256 19.422 40.5384 19.242C40.4191 19.1672 40.299 19.0936 40.1791 19.0198C40.1539 19.0043 40.1288 18.9888 40.1029 18.9728C39.8076 18.7907 39.509 18.6141 39.2104 18.4375C39.1101 18.3781 39.0097 18.3187 38.9094 18.2593C38.8851 18.2449 38.8609 18.2306 38.8359 18.2158C38.6655 18.1148 38.4955 18.0131 38.3257 17.9111C38.126 17.791 37.9258 17.6716 37.7253 17.5528C37.6999 17.5378 37.6745 17.5227 37.6483 17.5072C37.5151 17.4283 37.3819 17.3495 37.2486 17.2708C37.0146 17.1324 36.7813 16.9938 36.5522 16.8473C36.52 16.8268 36.4878 16.8063 36.4546 16.7852C36.3978 16.7488 36.3413 16.7118 36.2852 16.6742C36.1726 16.6022 36.1017 16.5609 35.9663 16.5704C35.8335 16.6042 35.7416 16.6521 35.6255 16.7246C35.5834 16.7506 35.5413 16.7766 35.4979 16.8034C35.4644 16.8244 35.4644 16.8244 35.4302 16.8458C35.3338 16.9064 35.2368 16.966 35.1398 17.0257C35.0884 17.0574 35.0371 17.0891 34.9857 17.1208C34.7041 17.2946 34.4196 17.4634 34.1348 17.6319C34.0823 17.663 34.0298 17.6941 33.9773 17.7252C33.7916 17.8352 33.6059 17.9451 33.4203 18.055C33.2352 18.1646 33.0502 18.2742 32.8652 18.3838C32.8267 18.4067 32.8267 18.4067 32.7873 18.43C32.5037 18.5981 32.2208 18.7672 31.9393 18.9388C31.9018 18.9617 31.9018 18.9617 31.8635 18.985C31.7452 19.0571 31.627 19.1294 31.509 19.202C31.0816 19.4635 30.7348 19.6722 30.2187 19.6094C29.9018 19.5059 29.6791 19.3539 29.5156 19.0625C29.4915 19.0214 29.4673 18.9804 29.4424 18.938C29.3252 18.5409 29.4154 18.1347 29.509 17.7415C29.5209 17.6897 29.5328 17.6379 29.5446 17.586C29.5699 17.4754 29.5956 17.3649 29.6215 17.2545C29.6626 17.0796 29.7029 16.9045 29.7431 16.7293C29.8068 16.4523 29.8711 16.1754 29.9356 15.8985C30.051 15.4026 30.1656 14.9066 30.2799 14.4104C30.32 14.2367 30.3603 14.0629 30.4008 13.8893C30.426 13.781 30.4511 13.6728 30.4761 13.5645C30.4932 13.491 30.5104 13.4175 30.5277 13.344C30.5834 13.1022 30.6368 12.8656 30.6484 12.6172C30.5791 12.5211 30.5337 12.472 30.4434 12.4024C30.4111 12.3753 30.4111 12.3753 30.3783 12.3477C30.3129 12.2931 30.2465 12.2402 30.1797 12.1875C30.1097 12.1306 30.0397 12.0736 29.9697 12.0166C29.9348 11.9885 29.8998 11.9604 29.8638 11.9315C29.7056 11.7987 29.5563 11.6572 29.406 11.5156C29.2374 11.3577 29.0623 11.2111 28.8819 11.0668C28.7569 10.9628 28.6382 10.8534 28.5195 10.7422C28.3674 10.5997 28.2135 10.4627 28.0508 10.3321C27.8648 10.1828 27.6908 10.0238 27.5169 9.86094C27.387 9.73997 27.2544 9.62518 27.1157 9.5142C26.0371 8.64782 26.0371 8.64782 25.9835 8.17493C25.9671 7.85172 25.994 7.57024 26.1953 7.30472C26.399 7.08255 26.6365 6.94954 26.9379 6.91357C26.9624 6.91062 26.9869 6.90767 27.0121 6.90462C27.4642 6.8523 27.9182 6.81455 28.3715 6.77375C28.5124 6.76104 28.6532 6.74817 28.7941 6.73533C29.0603 6.71107 29.3265 6.68693 29.5927 6.66285C30.0698 6.61967 30.5469 6.57633 31.024 6.53289C31.1911 6.51769 31.3581 6.50255 31.5252 6.48745C31.6041 6.48032 31.6829 6.47317 31.7618 6.466C31.8576 6.4573 31.9533 6.44864 32.0491 6.44003C32.132 6.43247 32.2149 6.42466 32.2977 6.41652C32.366 6.41009 32.4343 6.4046 32.5027 6.40049C32.6615 6.39007 32.6615 6.39007 32.7841 6.29717C32.7966 6.26638 32.809 6.23559 32.8218 6.20387C32.8368 6.16862 32.8518 6.13337 32.8672 6.09705C32.8823 6.05806 32.8973 6.01906 32.9128 5.97889C32.9383 5.91764 32.9383 5.91764 32.9642 5.85516C33.0203 5.71949 33.0746 5.58318 33.1289 5.44681C33.1679 5.35175 33.207 5.25675 33.2462 5.1618C33.3076 5.01323 33.3688 4.86461 33.4295 4.71575C33.5722 4.36544 33.7185 4.01684 33.8679 3.66932C33.8782 3.64534 33.8885 3.62137 33.8991 3.59667C33.9504 3.47743 34.0018 3.35822 34.0531 3.23903C34.1293 3.06236 34.2051 2.88557 34.2809 2.70874C34.317 2.62455 34.3531 2.54039 34.3894 2.45626C34.4763 2.25438 34.5625 2.05227 34.6468 1.84933C34.6883 1.74974 34.73 1.6503 34.7718 1.55086C34.8011 1.48088 34.8299 1.4107 34.8587 1.34053C35.0229 0.950377 35.1872 0.657611 35.5779 0.465735C35.8424 0.378815 36.2404 0.374428 36.4932 0.495642Z" fill="#FFC106"/>
</g>
<g clip-path="url(#clip2_10_1697)">
<path d="M62.4932 0.495642C62.5557 0.532721 62.5557 0.532721 62.625 0.585974C62.662 0.613666 62.6991 0.641357 62.7372 0.669888C62.8663 0.778197 62.938 0.902977 63.0081 1.05442C63.0212 1.0815 63.0342 1.10858 63.0476 1.13648C63.2183 1.49644 63.3716 1.86429 63.5259 2.23148C63.5595 2.311 63.5931 2.39051 63.6267 2.47001C63.6982 2.63886 63.7695 2.80775 63.8408 2.97666C64.0151 3.38915 64.1909 3.80096 64.3666 4.21286C64.6726 4.93049 64.9776 5.64857 65.2812 6.36722C65.5679 6.39473 65.8546 6.42215 66.1413 6.44954C66.2483 6.45976 66.3553 6.47001 66.4623 6.48029C67.15 6.54632 67.8379 6.61057 68.526 6.67227C68.7552 6.69286 68.9844 6.71367 69.2136 6.73448C69.4393 6.75493 69.665 6.775 69.8908 6.79483C70.0332 6.80742 70.1755 6.82036 70.3179 6.8334C70.3843 6.83941 70.4507 6.84527 70.5172 6.85097C71.4204 6.92867 71.4204 6.92867 71.7656 7.26566C72.0097 7.58551 72.0289 7.88906 72 8.28129C71.9401 8.51557 71.8293 8.66832 71.6484 8.82816C71.6076 8.87036 71.5669 8.91269 71.5264 8.95511C71.415 9.06673 71.2977 9.1664 71.1748 9.26517C71.0072 9.39994 70.8482 9.54057 70.6914 9.68754C70.5063 9.86092 70.3156 10.0231 70.1177 10.1819C69.9695 10.3054 69.8296 10.437 69.6888 10.5688C69.5589 10.6898 69.4263 10.8046 69.2876 10.9156C69.1167 11.0526 68.9562 11.1976 68.7969 11.3477C68.6052 11.5282 68.4087 11.6978 68.203 11.8624C68.0518 11.988 67.9084 12.1214 67.7652 12.256C67.7353 12.284 67.7353 12.284 67.7048 12.3127C67.6854 12.3312 67.6661 12.3498 67.6461 12.3689C67.5859 12.4219 67.5859 12.4219 67.5174 12.467C67.4403 12.5155 67.4403 12.5155 67.3516 12.6172C67.3642 12.8982 67.4304 13.1683 67.4936 13.4417C67.5041 13.4878 67.5146 13.5339 67.5254 13.5814C67.554 13.7069 67.5827 13.8324 67.6116 13.9579C67.6419 14.09 67.672 14.2222 67.7021 14.3543C67.7592 14.6047 67.8166 14.855 67.8739 15.1053C67.9388 15.3884 68.0035 15.6715 68.0681 15.9546C68.169 16.3965 68.2701 16.8385 68.3713 17.2803C68.3859 17.3442 68.3859 17.3442 68.4008 17.4093C68.4101 17.4499 68.4194 17.4905 68.429 17.5324C68.438 17.5718 68.447 17.6112 68.4563 17.6518C68.4761 17.7375 68.4963 17.823 68.5168 17.9085C68.5274 17.9529 68.538 17.9973 68.549 18.0431C68.5586 18.083 68.5683 18.1228 68.5782 18.1639C68.6613 18.582 68.5932 18.9167 68.3599 19.2701C68.1235 19.4959 67.8654 19.6135 67.5395 19.6192C67.5052 19.6202 67.4708 19.6212 67.4353 19.6222C67.0932 19.5865 66.8256 19.422 66.5384 19.242C66.4191 19.1672 66.299 19.0936 66.1791 19.0198C66.1539 19.0043 66.1288 18.9888 66.1029 18.9728C65.8076 18.7907 65.509 18.6141 65.2104 18.4375C65.1101 18.3781 65.0097 18.3187 64.9094 18.2593C64.8851 18.2449 64.8609 18.2306 64.8359 18.2158C64.6655 18.1148 64.4955 18.0131 64.3257 17.9111C64.126 17.791 63.9258 17.6716 63.7253 17.5528C63.6999 17.5378 63.6745 17.5227 63.6483 17.5072C63.5151 17.4283 63.3819 17.3495 63.2486 17.2708C63.0146 17.1324 62.7813 16.9938 62.5522 16.8473C62.52 16.8268 62.4878 16.8063 62.4546 16.7852C62.3978 16.7488 62.3413 16.7118 62.2852 16.6742C62.1726 16.6022 62.1017 16.5609 61.9663 16.5704C61.8335 16.6042 61.7416 16.6521 61.6255 16.7246C61.5834 16.7506 61.5413 16.7766 61.4979 16.8034C61.4644 16.8244 61.4644 16.8244 61.4302 16.8458C61.3338 16.9064 61.2368 16.966 61.1398 17.0257C61.0884 17.0574 61.0371 17.0891 60.9857 17.1208C60.7041 17.2946 60.4196 17.4634 60.1348 17.6319C60.0823 17.663 60.0298 17.6941 59.9773 17.7252C59.7916 17.8352 59.6059 17.9451 59.4203 18.055C59.2352 18.1646 59.0502 18.2742 58.8652 18.3838C58.8267 18.4067 58.8267 18.4067 58.7873 18.43C58.5037 18.5981 58.2208 18.7672 57.9393 18.9388C57.9018 18.9617 57.9018 18.9617 57.8635 18.985C57.7452 19.0571 57.627 19.1294 57.509 19.202C57.0816 19.4635 56.7348 19.6722 56.2187 19.6094C55.9018 19.5059 55.6791 19.3539 55.5156 19.0625C55.4915 19.0214 55.4673 18.9804 55.4424 18.938C55.3252 18.5409 55.4154 18.1347 55.509 17.7415C55.5209 17.6897 55.5328 17.6379 55.5446 17.586C55.5699 17.4754 55.5956 17.3649 55.6215 17.2545C55.6626 17.0796 55.7029 16.9045 55.7431 16.7293C55.8068 16.4523 55.8711 16.1754 55.9356 15.8985C56.051 15.4026 56.1656 14.9066 56.2799 14.4104C56.32 14.2367 56.3603 14.0629 56.4008 13.8893C56.426 13.781 56.4511 13.6728 56.4761 13.5645C56.4932 13.491 56.5104 13.4175 56.5277 13.344C56.5834 13.1022 56.6368 12.8656 56.6484 12.6172C56.5791 12.5211 56.5337 12.472 56.4434 12.4024C56.4111 12.3753 56.4111 12.3753 56.3783 12.3477C56.3129 12.2931 56.2465 12.2402 56.1797 12.1875C56.1097 12.1306 56.0397 12.0736 55.9697 12.0166C55.9348 11.9885 55.8998 11.9604 55.8638 11.9315C55.7056 11.7987 55.5563 11.6572 55.406 11.5156C55.2374 11.3577 55.0623 11.2111 54.8819 11.0668C54.7569 10.9628 54.6382 10.8534 54.5195 10.7422C54.3674 10.5997 54.2135 10.4627 54.0508 10.3321C53.8648 10.1828 53.6908 10.0238 53.5169 9.86094C53.387 9.73997 53.2544 9.62518 53.1157 9.5142C52.0371 8.64782 52.0371 8.64782 51.9835 8.17493C51.9671 7.85172 51.994 7.57024 52.1953 7.30472C52.399 7.08255 52.6365 6.94954 52.9379 6.91357C52.9624 6.91062 52.9869 6.90767 53.0121 6.90462C53.4642 6.8523 53.9182 6.81455 54.3715 6.77375C54.5124 6.76104 54.6532 6.74817 54.7941 6.73533C55.0603 6.71107 55.3265 6.68693 55.5927 6.66285C56.0698 6.61967 56.5469 6.57633 57.024 6.53289C57.1911 6.51769 57.3581 6.50255 57.5252 6.48745C57.6041 6.48032 57.6829 6.47317 57.7618 6.466C57.8576 6.4573 57.9533 6.44864 58.0491 6.44003C58.132 6.43247 58.2149 6.42466 58.2977 6.41652C58.366 6.41009 58.4343 6.4046 58.5027 6.40049C58.6615 6.39007 58.6615 6.39007 58.7841 6.29717C58.7966 6.26638 58.809 6.23559 58.8218 6.20387C58.8368 6.16862 58.8518 6.13337 58.8672 6.09705C58.8823 6.05806 58.8973 6.01906 58.9128 5.97889C58.9383 5.91764 58.9383 5.91764 58.9642 5.85516C59.0203 5.71949 59.0746 5.58318 59.1289 5.44681C59.1679 5.35175 59.207 5.25675 59.2462 5.1618C59.3076 5.01323 59.3688 4.86461 59.4295 4.71575C59.5722 4.36544 59.7185 4.01684 59.8679 3.66932C59.8782 3.64534 59.8885 3.62137 59.8991 3.59667C59.9504 3.47743 60.0018 3.35822 60.0531 3.23903C60.1293 3.06236 60.2051 2.88557 60.2809 2.70874C60.317 2.62455 60.3531 2.54039 60.3894 2.45626C60.4763 2.25438 60.5625 2.05227 60.6468 1.84933C60.6883 1.74974 60.73 1.6503 60.7718 1.55086C60.8011 1.48088 60.8299 1.4107 60.8587 1.34053C61.0229 0.950377 61.1872 0.657611 61.5779 0.465735C61.8424 0.378815 62.2404 0.374428 62.4932 0.495642Z" fill="#FFC106"/>
</g>
<g clip-path="url(#clip3_10_1697)">
<path d="M88.4932 0.495642C88.5557 0.532721 88.5557 0.532721 88.625 0.585974C88.662 0.613666 88.6991 0.641357 88.7372 0.669888C88.8663 0.778197 88.938 0.902977 89.0081 1.05442C89.0212 1.0815 89.0342 1.10858 89.0476 1.13648C89.2183 1.49644 89.3716 1.86429 89.5259 2.23148C89.5595 2.311 89.5931 2.39051 89.6267 2.47001C89.6982 2.63886 89.7695 2.80775 89.8408 2.97666C90.0151 3.38915 90.1909 3.80096 90.3666 4.21286C90.6726 4.93049 90.9776 5.64857 91.2812 6.36722C91.5679 6.39473 91.8546 6.42215 92.1413 6.44954C92.2483 6.45976 92.3553 6.47001 92.4623 6.48029C93.15 6.54632 93.8379 6.61057 94.526 6.67227C94.7552 6.69286 94.9844 6.71367 95.2136 6.73448C95.4393 6.75493 95.665 6.775 95.8908 6.79483C96.0332 6.80742 96.1755 6.82036 96.3179 6.8334C96.3843 6.83941 96.4507 6.84527 96.5172 6.85097C97.4204 6.92867 97.4204 6.92867 97.7656 7.26566C98.0097 7.58551 98.0289 7.88906 98 8.28129C97.9401 8.51557 97.8293 8.66832 97.6484 8.82816C97.6076 8.87036 97.5669 8.91269 97.5264 8.95511C97.415 9.06673 97.2977 9.1664 97.1748 9.26517C97.0072 9.39994 96.8482 9.54057 96.6914 9.68754C96.5063 9.86092 96.3156 10.0231 96.1177 10.1819C95.9695 10.3054 95.8296 10.437 95.6888 10.5688C95.5589 10.6898 95.4263 10.8046 95.2876 10.9156C95.1167 11.0526 94.9562 11.1976 94.7969 11.3477C94.6052 11.5282 94.4087 11.6978 94.203 11.8624C94.0518 11.988 93.9084 12.1214 93.7652 12.256C93.7353 12.284 93.7353 12.284 93.7048 12.3127C93.6854 12.3312 93.6661 12.3498 93.6461 12.3689C93.5859 12.4219 93.5859 12.4219 93.5174 12.467C93.4403 12.5155 93.4403 12.5155 93.3516 12.6172C93.3642 12.8982 93.4304 13.1683 93.4936 13.4417C93.5041 13.4878 93.5146 13.5339 93.5254 13.5814C93.554 13.7069 93.5827 13.8324 93.6116 13.9579C93.6419 14.09 93.672 14.2222 93.7021 14.3543C93.7592 14.6047 93.8166 14.855 93.8739 15.1053C93.9388 15.3884 94.0035 15.6715 94.0681 15.9546C94.169 16.3965 94.2701 16.8385 94.3713 17.2803C94.3859 17.3442 94.3859 17.3442 94.4008 17.4093C94.4101 17.4499 94.4194 17.4905 94.429 17.5324C94.438 17.5718 94.447 17.6112 94.4563 17.6518C94.4761 17.7375 94.4963 17.823 94.5168 17.9085C94.5274 17.9529 94.538 17.9973 94.549 18.0431C94.5586 18.083 94.5683 18.1228 94.5782 18.1639C94.6613 18.582 94.5932 18.9167 94.3599 19.2701C94.1235 19.4959 93.8654 19.6135 93.5395 19.6192C93.5052 19.6202 93.4708 19.6212 93.4353 19.6222C93.0932 19.5865 92.8256 19.422 92.5384 19.242C92.4191 19.1672 92.299 19.0936 92.1791 19.0198C92.1539 19.0043 92.1288 18.9888 92.1029 18.9728C91.8076 18.7907 91.509 18.6141 91.2104 18.4375C91.1101 18.3781 91.0097 18.3187 90.9094 18.2593C90.8851 18.2449 90.8609 18.2306 90.8359 18.2158C90.6655 18.1148 90.4955 18.0131 90.3257 17.9111C90.126 17.791 89.9258 17.6716 89.7253 17.5528C89.6999 17.5378 89.6745 17.5227 89.6483 17.5072C89.5151 17.4283 89.3819 17.3495 89.2486 17.2708C89.0146 17.1324 88.7813 16.9938 88.5522 16.8473C88.52 16.8268 88.4878 16.8063 88.4546 16.7852C88.3978 16.7488 88.3413 16.7118 88.2852 16.6742C88.1726 16.6022 88.1017 16.5609 87.9663 16.5704C87.8335 16.6042 87.7416 16.6521 87.6255 16.7246C87.5834 16.7506 87.5413 16.7766 87.4979 16.8034C87.4644 16.8244 87.4644 16.8244 87.4302 16.8458C87.3338 16.9064 87.2368 16.966 87.1398 17.0257C87.0884 17.0574 87.0371 17.0891 86.9857 17.1208C86.7041 17.2946 86.4196 17.4634 86.1348 17.6319C86.0823 17.663 86.0298 17.6941 85.9773 17.7252C85.7916 17.8352 85.6059 17.9451 85.4203 18.055C85.2352 18.1646 85.0502 18.2742 84.8652 18.3838C84.8267 18.4067 84.8267 18.4067 84.7873 18.43C84.5037 18.5981 84.2208 18.7672 83.9393 18.9388C83.9018 18.9617 83.9018 18.9617 83.8635 18.985C83.7452 19.0571 83.627 19.1294 83.509 19.202C83.0816 19.4635 82.7348 19.6722 82.2187 19.6094C81.9018 19.5059 81.6791 19.3539 81.5156 19.0625C81.4915 19.0214 81.4673 18.9804 81.4424 18.938C81.3252 18.5409 81.4154 18.1347 81.509 17.7415C81.5209 17.6897 81.5328 17.6379 81.5446 17.586C81.5699 17.4754 81.5956 17.3649 81.6215 17.2545C81.6626 17.0796 81.7029 16.9045 81.7431 16.7293C81.8068 16.4523 81.8711 16.1754 81.9356 15.8985C82.051 15.4026 82.1656 14.9066 82.2799 14.4104C82.32 14.2367 82.3603 14.0629 82.4008 13.8893C82.426 13.781 82.4511 13.6728 82.4761 13.5645C82.4932 13.491 82.5104 13.4175 82.5277 13.344C82.5834 13.1022 82.6368 12.8656 82.6484 12.6172C82.5791 12.5211 82.5337 12.472 82.4434 12.4024C82.4111 12.3753 82.4111 12.3753 82.3783 12.3477C82.3129 12.2931 82.2465 12.2402 82.1797 12.1875C82.1097 12.1306 82.0397 12.0736 81.9697 12.0166C81.9348 11.9885 81.8998 11.9604 81.8638 11.9315C81.7056 11.7987 81.5563 11.6572 81.406 11.5156C81.2374 11.3577 81.0623 11.2111 80.8819 11.0668C80.7569 10.9628 80.6382 10.8534 80.5195 10.7422C80.3674 10.5997 80.2135 10.4627 80.0508 10.3321C79.8648 10.1828 79.6908 10.0238 79.5169 9.86094C79.387 9.73997 79.2544 9.62518 79.1157 9.5142C78.0371 8.64782 78.0371 8.64782 77.9835 8.17493C77.9671 7.85172 77.994 7.57024 78.1953 7.30472C78.399 7.08255 78.6365 6.94954 78.9379 6.91357C78.9624 6.91062 78.9869 6.90767 79.0121 6.90462C79.4642 6.8523 79.9182 6.81455 80.3715 6.77375C80.5124 6.76104 80.6532 6.74817 80.7941 6.73533C81.0603 6.71107 81.3265 6.68693 81.5927 6.66285C82.0698 6.61967 82.5469 6.57633 83.024 6.53289C83.1911 6.51769 83.3581 6.50255 83.5252 6.48745C83.6041 6.48032 83.6829 6.47317 83.7618 6.466C83.8576 6.4573 83.9533 6.44864 84.0491 6.44003C84.132 6.43247 84.2149 6.42466 84.2977 6.41652C84.366 6.41009 84.4343 6.4046 84.5027 6.40049C84.6615 6.39007 84.6615 6.39007 84.7841 6.29717C84.7966 6.26638 84.809 6.23559 84.8218 6.20387C84.8368 6.16862 84.8518 6.13337 84.8672 6.09705C84.8823 6.05806 84.8973 6.01906 84.9128 5.97889C84.9383 5.91764 84.9383 5.91764 84.9642 5.85516C85.0203 5.71949 85.0746 5.58318 85.1289 5.44681C85.1679 5.35175 85.207 5.25675 85.2462 5.1618C85.3076 5.01323 85.3688 4.86461 85.4295 4.71575C85.5722 4.36544 85.7185 4.01684 85.8679 3.66932C85.8782 3.64534 85.8885 3.62137 85.8991 3.59667C85.9504 3.47743 86.0018 3.35822 86.0531 3.23903C86.1293 3.06236 86.2051 2.88557 86.2809 2.70874C86.317 2.62455 86.3531 2.54039 86.3894 2.45626C86.4763 2.25438 86.5625 2.05227 86.6468 1.84933C86.6883 1.74974 86.73 1.6503 86.7718 1.55086C86.8011 1.48088 86.8299 1.4107 86.8587 1.34053C87.0229 0.950377 87.1872 0.657611 87.5779 0.465735C87.8424 0.378815 88.2404 0.374428 88.4932 0.495642Z" fill="#FFC106"/>
</g>
<g clip-path="url(#clip4_10_1697)">
<path d="M114.493 0.495642C114.556 0.532721 114.556 0.532721 114.625 0.585974C114.662 0.613666 114.699 0.641357 114.737 0.669888C114.866 0.778197 114.938 0.902977 115.008 1.05442C115.021 1.0815 115.034 1.10858 115.048 1.13648C115.218 1.49644 115.372 1.86429 115.526 2.23148C115.559 2.311 115.593 2.39051 115.627 2.47001C115.698 2.63886 115.77 2.80775 115.841 2.97666C116.015 3.38915 116.191 3.80096 116.367 4.21286C116.673 4.93049 116.978 5.64857 117.281 6.36722C117.568 6.39473 117.855 6.42215 118.141 6.44954C118.248 6.45976 118.355 6.47001 118.462 6.48029C119.15 6.54632 119.838 6.61057 120.526 6.67227C120.755 6.69286 120.984 6.71367 121.214 6.73448C121.439 6.75493 121.665 6.775 121.891 6.79483C122.033 6.80742 122.176 6.82036 122.318 6.8334C122.384 6.83941 122.451 6.84527 122.517 6.85097C123.42 6.92867 123.42 6.92867 123.766 7.26566C124.01 7.58551 124.029 7.88906 124 8.28129C123.94 8.51557 123.829 8.66832 123.648 8.82816C123.608 8.87036 123.567 8.91269 123.526 8.95511C123.415 9.06673 123.298 9.1664 123.175 9.26517C123.007 9.39994 122.848 9.54057 122.691 9.68754C122.506 9.86092 122.316 10.0231 122.118 10.1819C121.969 10.3054 121.83 10.437 121.689 10.5688C121.559 10.6898 121.426 10.8046 121.288 10.9156C121.117 11.0526 120.956 11.1976 120.797 11.3477C120.605 11.5282 120.409 11.6978 120.203 11.8624C120.052 11.988 119.908 12.1214 119.765 12.256C119.735 12.284 119.735 12.284 119.705 12.3127C119.685 12.3312 119.666 12.3498 119.646 12.3689C119.586 12.4219 119.586 12.4219 119.517 12.467C119.44 12.5155 119.44 12.5155 119.352 12.6172C119.364 12.8982 119.43 13.1683 119.494 13.4417C119.504 13.4878 119.515 13.5339 119.525 13.5814C119.554 13.7069 119.583 13.8324 119.612 13.9579C119.642 14.09 119.672 14.2222 119.702 14.3543C119.759 14.6047 119.817 14.855 119.874 15.1053C119.939 15.3884 120.003 15.6715 120.068 15.9546C120.169 16.3965 120.27 16.8385 120.371 17.2803C120.386 17.3442 120.386 17.3442 120.401 17.4093C120.41 17.4499 120.419 17.4905 120.429 17.5324C120.438 17.5718 120.447 17.6112 120.456 17.6518C120.476 17.7375 120.496 17.823 120.517 17.9085C120.527 17.9529 120.538 17.9973 120.549 18.0431C120.559 18.083 120.568 18.1228 120.578 18.1639C120.661 18.582 120.593 18.9167 120.36 19.2701C120.124 19.4959 119.865 19.6135 119.54 19.6192C119.505 19.6202 119.471 19.6212 119.435 19.6222C119.093 19.5865 118.826 19.422 118.538 19.242C118.419 19.1672 118.299 19.0936 118.179 19.0198C118.154 19.0043 118.129 18.9888 118.103 18.9728C117.808 18.7907 117.509 18.6141 117.21 18.4375C117.11 18.3781 117.01 18.3187 116.909 18.2593C116.885 18.2449 116.861 18.2306 116.836 18.2158C116.665 18.1148 116.496 18.0131 116.326 17.9111C116.126 17.791 115.926 17.6716 115.725 17.5528C115.7 17.5378 115.674 17.5227 115.648 17.5072C115.515 17.4283 115.382 17.3495 115.249 17.2708C115.015 17.1324 114.781 16.9938 114.552 16.8473C114.52 16.8268 114.488 16.8063 114.455 16.7852C114.398 16.7488 114.341 16.7118 114.285 16.6742C114.173 16.6022 114.102 16.5609 113.966 16.5704C113.833 16.6042 113.742 16.6521 113.626 16.7246C113.583 16.7506 113.541 16.7766 113.498 16.8034C113.464 16.8244 113.464 16.8244 113.43 16.8458C113.334 16.9064 113.237 16.966 113.14 17.0257C113.088 17.0574 113.037 17.0891 112.986 17.1208C112.704 17.2946 112.42 17.4634 112.135 17.6319C112.082 17.663 112.03 17.6941 111.977 17.7252C111.792 17.8352 111.606 17.9451 111.42 18.055C111.235 18.1646 111.05 18.2742 110.865 18.3838C110.827 18.4067 110.827 18.4067 110.787 18.43C110.504 18.5981 110.221 18.7672 109.939 18.9388C109.902 18.9617 109.902 18.9617 109.863 18.985C109.745 19.0571 109.627 19.1294 109.509 19.202C109.082 19.4635 108.735 19.6722 108.219 19.6094C107.902 19.5059 107.679 19.3539 107.516 19.0625C107.491 19.0214 107.467 18.9804 107.442 18.938C107.325 18.5409 107.415 18.1347 107.509 17.7415C107.521 17.6897 107.533 17.6379 107.545 17.586C107.57 17.4754 107.596 17.3649 107.622 17.2545C107.663 17.0796 107.703 16.9045 107.743 16.7293C107.807 16.4523 107.871 16.1754 107.936 15.8985C108.051 15.4026 108.166 14.9066 108.28 14.4104C108.32 14.2367 108.36 14.0629 108.401 13.8893C108.426 13.781 108.451 13.6728 108.476 13.5645C108.493 13.491 108.51 13.4175 108.528 13.344C108.583 13.1022 108.637 12.8656 108.648 12.6172C108.579 12.5211 108.534 12.472 108.443 12.4024C108.411 12.3753 108.411 12.3753 108.378 12.3477C108.313 12.2931 108.247 12.2402 108.18 12.1875C108.11 12.1306 108.04 12.0736 107.97 12.0166C107.935 11.9885 107.9 11.9604 107.864 11.9315C107.706 11.7987 107.556 11.6572 107.406 11.5156C107.237 11.3577 107.062 11.2111 106.882 11.0668C106.757 10.9628 106.638 10.8534 106.52 10.7422C106.367 10.5997 106.214 10.4627 106.051 10.3321C105.865 10.1828 105.691 10.0238 105.517 9.86094C105.387 9.73997 105.254 9.62518 105.116 9.5142C104.037 8.64782 104.037 8.64782 103.984 8.17493C103.967 7.85172 103.994 7.57024 104.195 7.30472C104.399 7.08255 104.636 6.94954 104.938 6.91357C104.962 6.91062 104.987 6.90767 105.012 6.90462C105.464 6.8523 105.918 6.81455 106.371 6.77375C106.512 6.76104 106.653 6.74817 106.794 6.73533C107.06 6.71107 107.326 6.68693 107.593 6.66285C108.07 6.61967 108.547 6.57633 109.024 6.53289C109.191 6.51769 109.358 6.50255 109.525 6.48745C109.604 6.48032 109.683 6.47317 109.762 6.466C109.858 6.4573 109.953 6.44864 110.049 6.44003C110.132 6.43247 110.215 6.42466 110.298 6.41652C110.366 6.41009 110.434 6.4046 110.503 6.40049C110.662 6.39007 110.662 6.39007 110.784 6.29717C110.797 6.26638 110.809 6.23559 110.822 6.20387C110.837 6.16862 110.852 6.13337 110.867 6.09705C110.882 6.05806 110.897 6.01906 110.913 5.97889C110.938 5.91764 110.938 5.91764 110.964 5.85516C111.02 5.71949 111.075 5.58318 111.129 5.44681C111.168 5.35175 111.207 5.25675 111.246 5.1618C111.308 5.01323 111.369 4.86461 111.429 4.71575C111.572 4.36544 111.719 4.01684 111.868 3.66932C111.878 3.64534 111.888 3.62137 111.899 3.59667C111.95 3.47743 112.002 3.35822 112.053 3.23903C112.129 3.06236 112.205 2.88557 112.281 2.70874C112.317 2.62455 112.353 2.54039 112.389 2.45626C112.476 2.25438 112.562 2.05227 112.647 1.84933C112.688 1.74974 112.73 1.6503 112.772 1.55086C112.801 1.48088 112.83 1.4107 112.859 1.34053C113.023 0.950377 113.187 0.657611 113.578 0.465735C113.842 0.378815 114.24 0.374428 114.493 0.495642Z" fill="#FFC106"/>
</g>
<defs>
<clipPath id="clip0_10_1697">
<rect width="20" height="20" fill="white"/>
</clipPath>
<clipPath id="clip1_10_1697">
<rect width="20" height="20" fill="white" transform="translate(26)"/>
</clipPath>
<clipPath id="clip2_10_1697">
<rect width="20" height="20" fill="white" transform="translate(52)"/>
</clipPath>
<clipPath id="clip3_10_1697">
<rect width="20" height="20" fill="white" transform="translate(78)"/>
</clipPath>
<clipPath id="clip4_10_1697">
<rect width="20" height="20" fill="white" transform="translate(104)"/>
</clipPath>
</defs>
</svg>
