<svg width="24" height="24" viewBox="0 0 24 24" fill="none" xmlns="http://www.w3.org/2000/svg">
<g clip-path="url(#clip0_43_24)">
<path d="M15.3 5.54987C14.54 5.54974 13.8103 5.84799 13.2679 6.38044C12.7256 6.91288 12.4139 7.63697 12.4 8.39687L12.372 9.97187C12.3704 10.0564 12.3509 10.1397 12.3148 10.2162C12.2787 10.2927 12.2269 10.3607 12.1627 10.4157C12.0985 10.4708 12.0233 10.5117 11.9422 10.5356C11.8611 10.5596 11.7758 10.5662 11.692 10.5549L10.131 10.3429C8.07702 10.0629 6.10902 9.11687 4.22102 7.54387C3.62302 10.8539 4.79102 13.1469 7.60402 14.9159L9.35102 16.0139C9.43403 16.066 9.50299 16.1377 9.55187 16.2227C9.60075 16.3077 9.62806 16.4034 9.63142 16.5014C9.63477 16.5993 9.61407 16.6966 9.57111 16.7848C9.52816 16.8729 9.46427 16.9492 9.38502 17.0069L7.79302 18.1699C8.74002 18.2289 9.63902 18.1869 10.385 18.0389C15.103 17.0969 18.24 13.5469 18.24 7.69087C18.24 7.21287 17.228 5.54987 15.3 5.54987V5.54987ZM10.4 8.35987C10.4175 7.39592 10.7189 6.45854 11.2666 5.66509C11.8143 4.87164 12.5838 4.25739 13.4789 3.89924C14.3741 3.54108 15.3549 3.45495 16.2988 3.65162C17.2426 3.84829 18.1074 4.31902 18.785 5.00487C19.496 4.99987 20.101 5.17987 21.454 4.35987C21.119 5.99987 20.954 6.71187 20.24 7.69087C20.24 15.3329 15.543 19.0489 10.777 19.9999C7.50902 20.6519 2.75702 19.5809 1.39502 18.1589C2.08902 18.1049 4.90902 17.8019 6.53902 16.6089C5.16002 15.6999 -0.328981 12.4699 3.27802 3.78587C4.97102 5.76287 6.68802 7.10887 8.42802 7.82287C9.58602 8.29787 9.87002 8.28787 10.401 8.36087L10.4 8.35987Z" fill="white"/>
</g>
<defs>
<clipPath id="clip0_43_24">
<rect width="24" height="24" fill="white"/>
</clipPath>
</defs>
</svg>
