<svg width="40" height="40" viewBox="0 0 40 40" fill="none" xmlns="http://www.w3.org/2000/svg">
<circle cx="20" cy="20" r="19.5" fill="white" stroke="#5355AC"/>
<g clip-path="url(#clip0_511_362)">
<path d="M22.7496 14.6248C22.1163 14.6247 21.5082 14.8732 21.0562 15.3169C20.6042 15.7606 20.3445 16.364 20.3329 16.9973L20.3096 18.3098C20.3082 18.3802 20.292 18.4496 20.2619 18.5134C20.2319 18.5771 20.1887 18.6338 20.1351 18.6797C20.0816 18.7255 20.019 18.7596 19.9514 18.7796C19.8838 18.7996 19.8128 18.805 19.7429 18.7956L18.4421 18.6189C16.7304 18.3856 15.0904 17.5973 13.5171 16.2864C13.0188 19.0448 13.9921 20.9556 16.3363 22.4298L17.7921 23.3448C17.8613 23.3882 17.9187 23.448 17.9595 23.5188C18.0002 23.5896 18.023 23.6694 18.0258 23.751C18.0286 23.8327 18.0113 23.9137 17.9755 23.9872C17.9397 24.0606 17.8865 24.1242 17.8204 24.1723L16.4938 25.1414C17.2829 25.1906 18.0321 25.1556 18.6538 25.0323C22.5854 24.2473 25.1996 21.2889 25.1996 16.4089C25.1996 16.0106 24.3563 14.6248 22.7496 14.6248ZM18.6663 16.9664C18.6808 16.1631 18.932 15.382 19.3884 14.7208C19.8448 14.0596 20.4861 13.5477 21.232 13.2492C21.978 12.9508 22.7954 12.879 23.5819 13.0429C24.3684 13.2068 25.0891 13.5991 25.6538 14.1706C26.2463 14.1664 26.7504 14.3164 27.8779 13.6331C27.5988 14.9998 27.4613 15.5931 26.8663 16.4089C26.8663 22.7773 22.9521 25.8739 18.9804 26.6664C16.2571 27.2098 12.2971 26.3173 11.1621 25.1323C11.7404 25.0873 14.0904 24.8348 15.4488 23.8406C14.2996 23.0831 9.72544 20.3914 12.7313 13.1548C14.1421 14.8023 15.5729 15.9239 17.0229 16.5189C17.9879 16.9148 18.2246 16.9064 18.6671 16.9673L18.6663 16.9664Z" fill="#5355AC"/>
</g>
<defs>
<clipPath id="clip0_511_362">
<rect width="20" height="20" fill="white" transform="translate(10 10)"/>
</clipPath>
</defs>
</svg>
